<svg width="512" height="512" viewBox="0 0 512 512" fill="none" xmlns="http://www.w3.org/2000/svg">
<path d="M124.933 375.263C122.139 365.345 123.626 355.509 125.208 345.607C128.059 327.719 130.505 309.756 133.397 291.868C134.332 286.089 135.703 280.305 137.619 274.772C140.891 265.342 147.346 258.498 156.768 255.072C172.64 249.313 188.82 246.301 204.506 255.169C209.752 258.138 214.454 262.607 218.389 267.25C233.43 284.996 251.957 297.987 272.199 308.991C287.435 317.278 294.301 335.396 289.164 351.883C285.237 364.491 269.339 374.299 254.39 373.173C247.564 372.654 240.767 371.68 233.937 371.112C218.312 369.811 204.597 373.831 193.622 385.665C178.828 401.62 151.462 404.307 135.056 391.57C129.939 387.6 126.866 382.643 124.94 375.251L124.933 375.263Z" fill="#00CB76"/>
<path d="M144.64 184.007C140.41 167.308 137.765 155.172 138.941 142.538C140.216 128.789 145.451 117.458 158.955 111.928C174.366 105.621 188.817 106.219 201.405 118.82C208.29 125.716 213.162 133.671 215.61 143.02C219.495 157.816 222.519 172.854 219.3 188.113C216.522 201.258 208.081 210.671 195.882 215.8C182.487 221.433 170.434 217.677 159.599 208.442C150.538 200.706 146.032 190.657 144.64 184.007Z" fill="#00CB76"/>
<path d="M302.254 244.351C288.131 246.576 271.156 248.325 254.424 242.313C243.686 238.458 240.206 231.564 241.552 220.209C243.473 203.935 248.284 188.778 258.525 176.021C263.83 169.404 270.437 163.507 277.381 158.609C285.685 152.755 297.716 154.451 304.438 161.227C306.094 162.9 307.425 165.138 308.243 167.362C309.415 170.569 310.279 173.951 310.744 177.328C312.985 193.502 315.146 209.687 317.152 225.895C318.629 237.846 316.529 240.751 302.254 244.351Z" fill="#00CB76"/>
<path d="M116.889 215.901C117.847 224.388 117.024 232.906 112.771 240.685C107.823 249.741 99.1259 252.646 90.5299 246.842C84.28 242.626 78.6239 237.172 73.6846 231.434C63.1186 219.134 55.5234 205.324 56.7554 188.298C57.8391 173.379 64.7466 160.968 75.2709 150.944C82.9114 143.67 96.2198 146.57 101.359 155.869C103.787 160.276 105.662 165.045 107.313 169.814C108.916 174.443 109.925 179.282 111.195 184.031C111.346 184.52 115.683 205.19 116.889 215.901Z" fill="#00CB76"/>
<path d="M38.18 290.483C35.2989 279.896 34.8528 268.798 39.4305 257.633C43.8662 246.812 56.9118 248.083 61.7958 254.945C69.3473 265.55 79.6417 272.385 90.412 278.909C93.3229 280.672 96.1631 282.627 98.8088 284.767C107.243 291.562 108.427 299.795 102.613 308.96C96.7791 318.162 88.6048 324.847 79.4414 330.341C73.5205 333.896 66.9439 332.527 60.3024 326.391C49.8129 316.697 41.792 305.363 38.18 290.483Z" fill="#00CB76"/>
<path d="M423.211 396.658C425.624 392.595 426.137 388.062 426.616 383.49C427.483 375.229 428.539 366.984 429.389 358.719C429.663 356.049 429.746 353.325 429.558 350.648C429.234 346.084 427.197 342.291 423.444 339.66C417.119 335.235 410.332 331.99 402.351 334.065C399.681 334.761 397.074 336.185 394.784 337.777C386.031 343.861 376.305 347.427 366.058 349.91C358.344 351.782 353.157 358.996 353.466 366.905C353.701 372.954 359.555 379.176 366.29 380.442C369.367 381.019 372.484 381.39 375.568 381.945C382.622 383.215 388.201 386.615 391.641 393.153C396.276 401.967 408.042 406.39 416.801 402.686C419.533 401.531 421.48 399.699 423.209 396.652L423.211 396.658Z" fill="#0BA263"/>
<path d="M437.249 309.615C441.103 302.718 443.714 297.654 444.697 291.92C445.769 285.679 444.805 280.042 439.499 275.997C433.443 271.383 426.99 269.941 419.933 274.036C416.072 276.278 412.975 279.226 410.782 283.078C407.308 289.173 404.184 295.477 403.791 302.616C403.455 308.766 406.063 313.933 410.84 317.645C416.086 321.723 421.855 321.482 427.738 318.671C432.659 316.315 435.844 312.396 437.249 309.615Z" fill="#0BA263"/>
<path d="M360.471 317.729C366.443 320.382 373.732 323.162 381.835 322.475C387.036 322.036 389.392 319.393 390.148 314.204C391.235 306.769 390.912 299.487 387.907 292.627C386.351 289.07 384.135 285.677 381.651 282.688C378.679 279.114 373.165 278.444 369.391 280.652C368.46 281.197 367.607 282.031 366.981 282.919C366.082 284.202 365.298 285.598 364.691 287.038C361.779 293.938 358.899 300.852 356.087 307.794C354.013 312.913 354.595 314.448 360.471 317.729Z" fill="#0BA263"/>
<path d="M445.712 327.02C444.28 330.666 443.63 334.536 444.584 338.484C445.692 343.08 449.187 345.394 453.673 343.838C456.935 342.709 460.081 340.961 462.944 339.002C469.073 334.802 474.069 329.582 475.549 321.895C476.845 315.159 475.27 308.846 471.815 303.163C469.305 299.038 463.083 298.751 459.708 302.263C458.112 303.928 456.717 305.819 455.421 307.737C454.163 309.598 453.141 311.622 452.016 313.575C451.891 313.774 447.518 322.418 445.712 327.02Z" fill="#0BA263"/>
<path d="M471.602 369.351C474.133 365.002 475.65 360.139 474.956 354.653C474.284 349.336 468.372 348.358 465.399 350.821C460.803 354.626 455.444 356.438 449.912 358.056C448.417 358.493 446.931 359.024 445.508 359.659C440.975 361.673 439.473 365.179 440.951 369.926C442.433 374.691 445.248 378.617 448.641 382.133C450.833 384.407 453.901 384.577 457.563 382.644C463.348 379.589 468.238 375.516 471.602 369.351Z" fill="#0BA263"/>
</svg>
