<svg xmlns="http://www.w3.org/2000/svg" viewBox="0 0 72 60" fill="currentColor">
  <g clip-path="url(#clip0_1037_3525)">
    <path
      d="M38.3801 17.54L49.7601 5.55C51.7501 3.46 50.2601 0 47.3801 0H24.6101C21.7201 0 20.2401 3.46 22.2301 5.55L33.6101 17.54C34.9101 18.91 37.0801 18.91 38.3801 17.54Z"
    />
    <path
      d="M38.3801 17.54L49.7601 5.55C51.7501 3.46 50.2601 0 47.3801 0H24.6101C21.7201 0 20.2401 3.46 22.2301 5.55L33.6101 17.54C34.2246 18.1876 35.0334 18.5291 35.8529 18.5644C35.9537 18.5688 36.0546 18.5685 36.1553 18.5636C36.9686 18.524 37.7701 18.1828 38.3801 17.54Z"
    />
    <path
      d="M36.1553 18.5636C36.0546 18.5685 35.9537 18.5688 35.8529 18.5644C35.8422 18.5662 35.8313 18.5681 35.8201 18.57C35.7701 18.57 35.7301 18.57 35.6801 18.58H35.6501H35.6001C35.5401 18.59 35.4901 18.61 35.4401 18.63C35.3901 18.65 35.3301 18.66 35.2901 18.68C35.2801 18.68 35.2601 18.69 35.2501 18.7C35.2001 18.72 35.1501 18.75 35.1001 18.78C35.0501 18.81 35.0001 18.83 34.9501 18.86C34.9501 18.86 34.9301 18.87 34.9201 18.88C34.8701 18.91 34.8301 18.95 34.7801 18.99C34.7401 19.02 34.6901 19.05 34.6601 19.09L34.6401 19.11C34.6001 19.15 34.5601 19.2 34.5201 19.25C34.4901 19.29 34.4501 19.32 34.4201 19.36C34.4201 19.36 34.4101 19.38 34.4001 19.39L34.3101 19.54C34.2801 19.59 34.2501 19.63 34.2301 19.68C34.2301 19.69 34.2201 19.7 34.2101 19.72C34.1901 19.77 34.1801 19.82 34.1601 19.86C34.1401 19.92 34.1201 19.97 34.1101 20.03V20.07V20.1C33.1001 25.68 30.2901 29.4 25.5101 31.45C19.8101 33.9 13.3601 32.99 8.67006 29.07C4.91006 25.92 3.39006 21.84 4.01006 16.59C4.13006 15.55 3.37006 14.62 2.31006 14.5C1.26006 14.37 0.290064 15.12 0.170064 16.16C-0.599936 22.66 1.42006 27.97 6.16006 31.94C8.97342 34.8633 17.0901 39.546 27.0501 34.89C29.9401 33.65 32.6201 30.78 34.0601 29.64C35.5 28.5 36.5 28.5 37.9201 29.64C39.3401 30.78 42.0501 33.65 44.9401 34.89C48.8668 36.72 58.5481 38.692 65.8601 31.94C70.6001 27.97 72.6201 22.66 71.8501 16.16L71.8401 16.14C71.7201 15.1 70.7601 14.35 69.7001 14.48C68.6401 14.6 67.8801 15.54 68.0001 16.57C68.6201 21.82 67.1001 25.9 63.3401 29.05C58.6601 32.97 52.2101 33.88 46.5001 31.43C41.7301 29.38 38.9101 25.67 37.9001 20.08V20.05V20.01C37.8901 19.95 37.8601 19.89 37.8401 19.83C37.8201 19.78 37.8101 19.74 37.8001 19.69C37.8001 19.68 37.8001 19.67 37.7801 19.65C37.7601 19.6 37.7201 19.55 37.6901 19.49C37.6701 19.45 37.6401 19.4 37.6201 19.36C37.6201 19.36 37.6101 19.34 37.6001 19.33C37.5601 19.28 37.5201 19.23 37.4801 19.19C37.4501 19.15 37.4201 19.12 37.3901 19.08L37.3701 19.06C37.3201 19.01 37.2701 18.98 37.2201 18.94L37.2101 18.93C37.1801 18.91 37.1501 18.88 37.1201 18.86C37.1101 18.86 37.1001 18.85 37.0901 18.84C37.0401 18.81 36.9801 18.78 36.9301 18.75C36.9201 18.75 36.9101 18.74 36.9001 18.73C36.8701 18.71 36.8401 18.69 36.8001 18.68C36.7901 18.68 36.7701 18.67 36.7601 18.66C36.7101 18.64 36.6501 18.63 36.6001 18.61H36.5901C36.5401 18.6 36.4901 18.58 36.4401 18.57H36.3901H36.3601H36.2201C36.1974 18.57 36.1762 18.5672 36.1553 18.5636Z"
    />
  </g>

</svg>