<svg xmlns="http://www.w3.org/2000/svg" viewBox="0 0 72 60" fill="#EB4646">
  <g clip-path="url(#clip0_1037_3525)">
    <path
      d="M19 34.3905L22.8129 33.8772L22.813 43.1709C22.813 47.3099 24.8433 51.2087 28.2503 53.5785C32.5783 56.6036 38.4019 56.5927 42.7299 53.5785C46.1369 51.2087 48.1672 47.3208 48.1672 43.1709H48.1573V33.8772L52 34.3905V43.2036C52 48.7624 49.316 53.9498 44.8196 57.0841C42.0366 59.028 38.7683 60 35.5 60C32.2317 60 28.9634 59.028 26.1804 57.0841C21.684 53.9498 19 48.7624 19 43.2036V34.3905Z"
    />
    <path
      d="M35.4802 44.7653C34.4205 44.7653 33.5687 43.8371 33.5687 42.7013L33.5092 25.0095C33.5092 25.0095 34.5233 24.9883 35.49 25.0093C36.4322 25.0297 37.3917 25.0093 37.3917 25.0093V42.7013C37.3917 43.8371 36.5399 44.7653 35.4802 44.7653Z"
    />
  </g>
</svg>