<svg xmlns="http://www.w3.org/2000/svg" viewBox="0 0 72 60"
  fill="#EB4646">
  <path
    d="M65.6587 4.27716C62.5048 1.45753 55.2018 -1.19213 47.2483 0.567642C39.2947 2.32742 35.9931 8.00669 35.9931 8.00669C35.9931 8.00669 32.6914 2.32742 24.7379 0.567642C16.7844 -1.19213 9.4813 1.44753 6.32748 4.27716C3.42991 6.87683 -2.51306 12.4261 1.17296 26.8343C4.85899 41.2424 26.0881 54.7407 26.0881 54.7407C26.0881 54.7407 33.677 60 36.0029 60C38.3289 60 45.9177 54.7407 45.9177 54.7407C45.9177 54.7407 67.1469 41.2424 70.8329 26.8343C74.5189 12.4261 68.5759 6.87683 65.6784 4.27716H65.6587Z"
  />
</svg>