<svg xmlns="http://www.w3.org/2000/svg" viewBox="0 0 178 206" fill="none">
  <path
    d="M100.937 5.34867C105.026 1.04324 126.32 3.15298 136.698 7.6772C145.894 11.6857 155.606 29.3919 155.606 29.3919L155.614 29.3997C155.614 29.3997 164.881 50.6534 149.186 51.0988C133.491 51.5442 130.465 42.6676 130.465 42.6676C130.465 42.6676 121.464 21.1717 116.944 13.186C114.113 8.19292 106.504 6.04411 100.937 5.34867ZM100.937 5.34867C99.0833 5.34867 97.5427 5.35649 96.4401 5.3643C96.4479 5.3643 96.4714 5.37993 96.4714 5.37993C96.4714 5.37993 96.1351 5.37212 95.5252 5.37212C94.9152 5.37993 94.579 5.37993 94.579 5.37993C94.5868 5.37993 94.6024 5.3643 94.6102 5.3643C93.5076 5.34867 91.9671 5.34868 90.1137 5.34868C92.4441 5.05175 94.4069 5.02049 95.5252 5.1377C96.6434 5.02049 98.6063 5.05956 100.937 5.34867ZM79.8617 78.3847C79.8617 78.3847 85.1637 89.2616 92.4832 83.2918C94.7041 80.9711 95.6347 78.627 95.6816 76.2594M111.196 78.3847C111.196 78.3847 106.372 89.2616 99.7011 83.2918C97.6757 80.9711 96.8311 78.627 96.7842 76.2594M86.6495 195.522C89.4881 196.116 92.4519 196.436 95.5017 196.436C98.5515 196.436 101.515 196.116 104.354 195.522M74.0358 95.4424C64.3859 100.232 58.0829 108.155 58.0829 117.126V191.248C58.0829 197.733 64.4797 203 72.3701 203C80.2605 203 86.6573 197.741 86.6573 191.248V142.849M104.362 142.849V191.248C104.362 197.733 110.759 203 118.649 203C126.539 203 132.936 197.741 132.936 191.248V117.126C132.936 108.429 127.009 100.717 117.859 95.8877M58.0829 174.44L28.8908 172.002C28.0306 171.862 27.147 171.784 26.2477 171.784C17.9663 171.784 11.2567 177.777 11.2567 185.169C11.2567 192.561 17.9663 198.554 26.2477 198.554H62.0164M132.928 174.042L157.366 172.002C158.226 171.862 159.11 171.784 160.009 171.784C168.29 171.784 175 177.777 175 185.169C175 192.561 168.29 198.554 160.009 198.554H128.995M58.0829 128.651C58.0829 128.651 31.9797 122.681 26.7716 151.569C26.7716 151.569 24.8322 163.954 28.8908 172.01M132.928 128.651C132.928 128.651 159.032 122.681 164.24 151.569C164.24 151.569 165.733 162.384 161.682 170.44M33.184 136.582C32.9103 138.02 24.1441 135.731 21.9545 116.899C21.5557 113.461 22.017 106.163 21.9545 100.912C21.9545 100.912 22.3377 88.5896 10.0055 100.912C-2.32667 113.234 5.37604 133.269 5.37604 133.269C5.37604 133.269 9.07491 149.444 26.3102 156.383M130.457 42.6051C130.457 42.6051 121.464 20.9686 116.936 12.9281C114.888 9.27904 110.321 7.14586 105.84 5.9816C102.86 5.37993 99.7714 5.05956 96.6122 5.05175C96.5574 5.05175 96.487 5.05175 96.4323 5.05175C96.4401 5.05175 96.4558 5.06738 96.4636 5.06738C96.4636 5.06738 96.229 5.06738 95.8067 5.05956C89.8479 5.1377 84.1627 6.31759 78.9311 8.4117C76.8901 9.56815 75.154 11.045 74.0983 12.9281C69.5784 20.9686 60.5775 42.6051 60.5775 42.6051C60.5775 42.6051 58.5521 48.5671 49.2541 50.5049C49.2307 51.0831 49.2072 51.6614 49.2072 52.2474C49.2072 78.3144 70.3526 99.4431 96.4401 99.4431C109.883 99.4431 122.012 93.8327 130.614 84.8312C138.707 76.3609 143.673 64.8824 143.673 52.2474C143.673 51.7708 143.65 51.3019 143.634 50.8253C132.725 49.3563 130.434 42.6051 130.434 42.6051H130.457ZM35.444 29.3919C35.444 29.3919 26.1773 50.6534 41.872 51.091C57.5668 51.5363 60.5932 42.6598 60.5932 42.6598C60.5932 42.6598 69.5862 21.1639 74.114 13.1782C76.9448 8.1851 84.5537 6.03629 90.1216 5.34086C92.6631 2.98889 73.0739 3.43428 54.3606 7.66939C44.57 9.88852 35.4518 29.3841 35.4518 29.3841L35.444 29.3919Z"
    stroke="currentColor" stroke-width="6" stroke-miterlimit="10" stroke-linecap="round" />
  <path
    d="M97.5897 77.3687L105.55 66.3747C106.215 65.4604 105.558 64.1712 104.424 64.1712H88.5029C87.369 64.1712 86.7121 65.4526 87.3768 66.3747L95.3376 77.3687C95.8928 78.1345 97.0345 78.1345 97.5897 77.3687Z"
    fill="currentColor" />
  <path
    d="M76.1081 59.8735C80.0254 59.8735 83.2009 56.7005 83.2009 52.7864C83.2009 48.8722 80.0254 45.6992 76.1081 45.6992C72.1909 45.6992 69.0154 48.8722 69.0154 52.7864C69.0154 56.7005 72.1909 59.8735 76.1081 59.8735Z"
    fill="currentColor" />
  <path
    d="M115.607 59.8735C119.524 59.8735 122.7 56.7005 122.7 52.7864C122.7 48.8722 119.524 45.6992 115.607 45.6992C111.69 45.6992 108.514 48.8722 108.514 52.7864C108.514 56.7005 111.69 59.8735 115.607 59.8735Z"
    fill="currentColor" />
</svg>