<svg xmlns="http://www.w3.org/2000/svg" viewBox="0 0 30 60" fill="currentColor">
  <path
    d="M22.4998 45.5C22.4998 49.6421 19.1419 53 14.9998 53C10.8577 53 7.49977 49.6421 7.49977 45.5C7.49977 42.7244 9.00867 40.3029 11.2498 39.0058V26.75C11.2498 24.6789 12.9287 23 14.9998 23C17.0708 23 18.7498 24.6789 18.7498 26.75V39.0058C20.9909 40.3029 22.4998 42.7244 22.4998 45.5ZM26.2498 35.5797C28.5832 38.2238 29.9998 41.6962 29.9998 45.5C29.9998 53.7847 23.2846 60.5 14.9998 60.5C14.9647 60.5 14.9284 60.4999 14.8932 60.4996C6.65473 60.4425 -0.0420703 53.6605 0 45.4218C0.0192188 41.6486 1.43238 38.2057 3.74977 35.5797V11.75C3.74977 5.53684 8.7866 0.5 14.9998 0.5C21.2129 0.5 26.2498 5.53684 26.2498 11.75V35.5797ZM24.3748 45.5C24.3748 41.4759 22.1048 39.384 20.6248 37.7068V11.75C20.6248 8.6484 18.1014 6.125 14.9998 6.125C11.8982 6.125 9.37477 8.6484 9.37477 11.75V37.7068C7.88273 39.3976 5.64527 41.4685 5.62488 45.4505C5.59863 50.5923 9.79242 54.8391 14.9323 54.8748L14.9998 54.875C20.1691 54.875 24.3748 50.6694 24.3748 45.5Z"
  />
</svg>