<svg xmlns="http://www.w3.org/2000/svg" width="20" height="58" viewBox="0 0 20 58" fill="none">
  <path fill-rule="evenodd" clip-rule="evenodd"
    d="M2.5 40.895C0.944378 42.7098 0 45.0933 0 47.7041C0 53.3907 4.4768 58 10 58L10.0286 58L10.071 57.9998C15.5634 57.9605 20.0279 53.3054 19.9999 47.6505C19.9871 45.0606 19.0449 42.6974 17.5 40.895V7.72189C17.5 3.45724 14.1421 0 10 0C5.8579 0 2.5 3.45724 2.5 7.72189V40.895ZM4.66668 41.5648V7.5503C4.66668 4.51751 7.05454 2.05917 10 2.05917C12.9455 2.05917 15.3334 4.51751 15.3334 7.5503V41.5648C16.9701 43.073 18 45.2646 18 47.7041C18 52.2532 14.4183 55.9408 10 55.9408C5.58172 55.9408 2.00001 52.2532 2.00001 47.7041C2.00001 45.2646 3.02996 43.073 4.66668 41.5648Z"
    fill="black" />
  <circle cx="6" cy="6" r="6" transform="matrix(-1 0 0 1 16 42)" fill="#FF4E4E" />
  <circle cx="3" cy="3" r="3" transform="matrix(-1 0 0 1 13 8)" fill="#FF4E4E" />
  <rect width="6" height="40" transform="matrix(-1 0 0 1 13 11)" fill="#FF4E4E" />
</svg>